<?xml version="1.0" encoding="UTF-8" standalone="no"?>
<!DOCTYPE svg PUBLIC "-//W3C//DTD SVG 1.1//EN"
 "http://www.w3.org/Graphics/SVG/1.1/DTD/svg11.dtd">
<!-- Generated by graphviz version 12.2.1 (20241206.2353)
 -->
<!-- Title: G Pages: 1 -->
<svg width="1133pt" height="617pt"
 viewBox="0.00 0.00 1133.18 617.00" xmlns="http://www.w3.org/2000/svg" xmlns:xlink="http://www.w3.org/1999/xlink">
<g id="graph0" class="graph" transform="scale(1 1) rotate(0) translate(4 613)">
<title>G</title>
<polygon fill="#f9f9f9" stroke="none" points="-4,4 -4,-613 1129.18,-613 1129.18,4 -4,4"/>
<g id="clust1" class="cluster">
<title>cluster_1</title>
<polygon fill="#5dade2" fill-opacity="0.125490" stroke="#5dade2" stroke-width="2" points="42.45,-8 42.45,-384 1117.18,-384 1117.18,-8 42.45,-8"/>
<text text-anchor="middle" x="579.81" y="-366.7" font-family="Arial" font-size="14.00">root</text>
</g>
<g id="clust2" class="cluster">
<title>cluster_2</title>
<polygon fill="#3498db" fill-opacity="0.125490" stroke="#3498db" stroke-width="2" points="410.28,-168 410.28,-352 1109.18,-352 1109.18,-168 410.28,-168"/>
<text text-anchor="middle" x="759.73" y="-334.7" font-family="Arial" font-size="14.00">bench</text>
</g>
<g id="clust3" class="cluster">
<title>cluster_legend</title>
<polygon fill="#f9f9f9" stroke="gray" stroke-width="2" stroke-dasharray="5,2" points="8,-392 8,-601 558.95,-601 558.95,-392 8,-392"/>
<text text-anchor="middle" x="283.48" y="-583.7" font-family="Arial" font-size="14.00">Legend</text>
</g>
<!-- n0 -->
<g id="node1" class="node">
<title>n0</title>
<polygon fill="#5dade2" stroke="black" stroke-width="1.5" points="116.9,-160.28 113.9,-164.28 92.9,-164.28 89.9,-160.28 50.45,-160.28 50.45,-115.72 116.9,-115.72 116.9,-160.28"/>
<text text-anchor="middle" x="83.67" y="-132.57" font-family="Arial" font-size="14.00">root</text>
</g>
<!-- n5 -->
<g id="node2" class="node">
<title>n5</title>
<ellipse fill="#f4d03f" stroke="black" stroke-width="1.5" cx="458.25" cy="-48" rx="216.16" ry="31.5"/>
<text text-anchor="middle" x="458.25" y="-42.58" font-family="Arial" font-size="14.00">npm (.): @codeeditorland/workspace v0.0.1</text>
</g>
<!-- n0&#45;&gt;n5 -->
<g id="edge5" class="edge">
<title>n0&#45;&gt;n5</title>
<path fill="none" stroke="blue" d="M83.18,-115.29C83.18,-88.63 83.18,-48 83.18,-48 83.18,-48 232.19,-48 232.19,-48"/>
<polygon fill="blue" stroke="blue" points="232.19,-50.8 240.19,-48 232.19,-45.2 232.19,-50.8"/>
<text text-anchor="middle" x="196.72" y="-71.5" font-family="Arial" font-size="10.00" fill="gray">Contain</text>
</g>
<!-- n3 -->
<g id="node3" class="node">
<title>n3</title>
<polygon fill="#fadbd8" stroke="black" points="513.6,-160.28 396.9,-160.28 396.9,-115.72 519.6,-115.72 519.6,-154.28 513.6,-160.28"/>
<polyline fill="none" stroke="black" points="513.6,-160.28 513.6,-154.28"/>
<polyline fill="none" stroke="black" points="519.6,-154.28 513.6,-154.28"/>
<text text-anchor="middle" x="458.25" y="-132.57" font-family="Arial" font-size="14.00">package.json</text>
</g>
<!-- n0&#45;&gt;n3 -->
<g id="edge3" class="edge">
<title>n0&#45;&gt;n3</title>
<path fill="none" stroke="blue" d="M117.24,-138C117.24,-138 387.14,-138 387.14,-138"/>
<polygon fill="blue" stroke="blue" points="387.14,-140.8 395.14,-138 387.14,-135.2 387.14,-140.8"/>
<text text-anchor="middle" x="196.72" y="-140.5" font-family="Arial" font-size="10.00" fill="gray">Contain</text>
</g>
<!-- n1 -->
<g id="node4" class="node">
<title>n1</title>
<polygon fill="#3498db" stroke="black" stroke-width="1.5" points="498.23,-241.28 495.23,-245.28 474.23,-245.28 471.23,-241.28 418.28,-241.28 418.28,-196.72 498.23,-196.72 498.23,-241.28"/>
<text text-anchor="middle" x="458.25" y="-213.57" font-family="Arial" font-size="14.00">bench</text>
</g>
<!-- n0&#45;&gt;n1 -->
<g id="edge1" class="edge">
<title>n0&#45;&gt;n1</title>
<path fill="none" stroke="blue" d="M83.18,-160.56C83.18,-184.53 83.18,-219 83.18,-219 83.18,-219 408.6,-219 408.6,-219"/>
<polygon fill="blue" stroke="blue" points="408.6,-221.8 416.6,-219 408.6,-216.2 408.6,-221.8"/>
<text text-anchor="middle" x="196.72" y="-207.5" font-family="Arial" font-size="10.00" fill="gray">Contain</text>
</g>
<!-- n4 -->
<g id="node5" class="node">
<title>n4</title>
<ellipse fill="#eb984e" stroke="black" stroke-width="1.5" cx="922.67" cy="-208" rx="178.51" ry="31.5"/>
<text text-anchor="middle" x="922.67" y="-202.57" font-family="Arial" font-size="14.00">cargo (./bench): tauri_bench v0.1.0</text>
</g>
<!-- n1&#45;&gt;n4 -->
<g id="edge4" class="edge">
<title>n1&#45;&gt;n4</title>
<path fill="none" stroke="blue" d="M498.65,-218.11C498.65,-218.11 743.52,-218.11 743.52,-218.11"/>
<polygon fill="blue" stroke="blue" points="743.52,-220.91 751.52,-218.11 743.52,-215.31 743.52,-220.91"/>
<text text-anchor="middle" x="709.29" y="-217.5" font-family="Arial" font-size="10.00" fill="gray">Contain</text>
</g>
<!-- n2 -->
<g id="node6" class="node">
<title>n2</title>
<polygon fill="#fadbd8" stroke="black" points="971.65,-320.27 867.7,-320.27 867.7,-275.73 977.65,-275.73 977.65,-314.27 971.65,-320.27"/>
<polyline fill="none" stroke="black" points="971.65,-320.27 971.65,-314.27"/>
<polyline fill="none" stroke="black" points="977.65,-314.27 971.65,-314.27"/>
<text text-anchor="middle" x="922.67" y="-292.57" font-family="Arial" font-size="14.00">Cargo.toml</text>
</g>
<!-- n1&#45;&gt;n2 -->
<g id="edge2" class="edge">
<title>n1&#45;&gt;n2</title>
<path fill="none" stroke="blue" d="M494.18,-241.43C494.18,-264.78 494.18,-298 494.18,-298 494.18,-298 858.02,-298 858.02,-298"/>
<polygon fill="blue" stroke="blue" points="858.02,-300.8 866.02,-298 858.02,-295.2 858.02,-300.8"/>
<text text-anchor="middle" x="709.29" y="-285.5" font-family="Arial" font-size="10.00" fill="gray">Contain</text>
</g>
<!-- dir -->
<g id="node7" class="node">
<title>dir</title>
<polygon fill="#5dade2" stroke="black" points="132.27,-457.27 129.27,-461.27 108.27,-461.27 105.27,-457.27 35.07,-457.27 35.07,-412.73 132.27,-412.73 132.27,-457.27"/>
<text text-anchor="middle" x="83.67" y="-429.57" font-family="Arial" font-size="14.00">Directory</text>
</g>
<!-- file -->
<g id="node8" class="node">
<title>file</title>
<polygon fill="#fadbd8" stroke="black" points="484.73,-444.27 425.78,-444.27 425.78,-399.73 490.73,-399.73 490.73,-438.27 484.73,-444.27"/>
<polyline fill="none" stroke="black" points="484.73,-444.27 484.73,-438.27"/>
<polyline fill="none" stroke="black" points="490.73,-438.27 484.73,-438.27"/>
<text text-anchor="middle" x="458.25" y="-416.57" font-family="Arial" font-size="14.00">File</text>
</g>
<!-- dir&#45;&gt;file -->
<g id="edge6" class="edge">
<title>dir&#45;&gt;file</title>
<path fill="none" stroke="blue" d="M132.64,-428.5C132.64,-428.5 413.77,-428.5 413.77,-428.5"/>
<polygon fill="blue" stroke="blue" points="413.77,-432 423.77,-428.5 413.77,-425 413.77,-432"/>
<text text-anchor="middle" x="196.72" y="-438.5" font-family="Arial" font-size="10.00" fill="gray">Contain</text>
</g>
<!-- pkg -->
<g id="node9" class="node">
<title>pkg</title>
<ellipse fill="#eb984e" stroke="black" cx="83.67" cy="-525" rx="67.67" ry="31.5"/>
<text text-anchor="middle" x="83.67" y="-519.58" font-family="Arial" font-size="14.00">Package</text>
</g>
<!-- ext -->
<g id="node10" class="node">
<title>ext</title>
<polygon fill="#ec7063" stroke="black" points="512.39,-569.55 404.11,-569.55 365.55,-480.45 550.95,-480.45 512.39,-569.55"/>
<text text-anchor="middle" x="458.25" y="-519.58" font-family="Arial" font-size="14.00">External</text>
</g>
<!-- pkg&#45;&gt;ext -->
<g id="edge7" class="edge">
<title>pkg&#45;&gt;ext</title>
<path fill="none" stroke="red" stroke-dasharray="5,2" d="M151.5,-525C151.5,-525 373,-525 373,-525"/>
<polygon fill="red" stroke="red" points="373,-528.5 383,-525 373,-521.5 373,-528.5"/>
<text text-anchor="middle" x="196.72" y="-527.5" font-family="Arial" font-size="10.00" fill="gray">Dependency</text>
</g>
</g>
</svg>
