<?xml version="1.0" encoding="UTF-8" standalone="no"?>
<!DOCTYPE svg PUBLIC "-//W3C//DTD SVG 1.1//EN"
 "http://www.w3.org/Graphics/SVG/1.1/DTD/svg11.dtd">
<!-- Generated by graphviz version 12.2.1 (20241206.2353)
 -->
<!-- Title: G Pages: 1 -->
<svg width="701pt" height="425pt"
 viewBox="0.00 0.00 700.54 425.00" xmlns="http://www.w3.org/2000/svg" xmlns:xlink="http://www.w3.org/1999/xlink">
<g id="graph0" class="graph" transform="scale(1 1) rotate(0) translate(4 421)">
<title>G</title>
<polygon fill="#f9f9f9" stroke="none" points="-4,4 -4,-421 696.54,-421 696.54,4 -4,4"/>
<g id="clust1" class="cluster">
<title>cluster_1</title>
<polygon fill="#5dade2" fill-opacity="0.125490" stroke="#5dade2" stroke-width="2" points="42.45,-8 42.45,-192 684.54,-192 684.54,-8 42.45,-8"/>
<text text-anchor="middle" x="363.49" y="-174.7" font-family="Arial" font-size="14.00">root</text>
</g>
<g id="clust2" class="cluster">
<title>cluster_legend</title>
<polygon fill="#f9f9f9" stroke="gray" stroke-width="2" stroke-dasharray="5,2" points="8,-200 8,-409 560.01,-409 560.01,-200 8,-200"/>
<text text-anchor="middle" x="284.01" y="-391.7" font-family="Arial" font-size="14.00">Legend</text>
</g>
<!-- n0 -->
<g id="node1" class="node">
<title>n0</title>
<polygon fill="#5dade2" stroke="black" stroke-width="1.5" points="116.9,-120.28 113.9,-124.28 92.9,-124.28 89.9,-120.28 50.45,-120.28 50.45,-75.72 116.9,-75.72 116.9,-120.28"/>
<text text-anchor="middle" x="83.67" y="-92.58" font-family="Arial" font-size="14.00">root</text>
</g>
<!-- n2 -->
<g id="node2" class="node">
<title>n2</title>
<ellipse fill="#eb984e" stroke="black" stroke-width="1.5" cx="459.31" cy="-48" rx="217.22" ry="31.5"/>
<text text-anchor="middle" x="459.31" y="-42.58" font-family="Arial" font-size="14.00">cargo (.): tauri&#45;file&#45;associations&#45;demo v0.1.0</text>
</g>
<!-- n0&#45;&gt;n2 -->
<g id="edge2" class="edge">
<title>n0&#45;&gt;n2</title>
<path fill="none" stroke="blue" d="M83.54,-75.39C83.54,-61.41 83.54,-46.11 83.54,-46.11 83.54,-46.11 232.57,-46.11 232.57,-46.11"/>
<polygon fill="blue" stroke="blue" points="232.57,-48.91 240.57,-46.11 232.57,-43.31 232.57,-48.91"/>
<text text-anchor="middle" x="196.72" y="-70.5" font-family="Arial" font-size="10.00" fill="gray">Contain</text>
</g>
<!-- n1 -->
<g id="node3" class="node">
<title>n1</title>
<polygon fill="#fadbd8" stroke="black" points="508.29,-160.28 404.34,-160.28 404.34,-115.72 514.29,-115.72 514.29,-154.28 508.29,-160.28"/>
<polyline fill="none" stroke="black" points="508.29,-160.28 508.29,-154.28"/>
<polyline fill="none" stroke="black" points="514.29,-154.28 508.29,-154.28"/>
<text text-anchor="middle" x="459.31" y="-132.57" font-family="Arial" font-size="14.00">Cargo.toml</text>
</g>
<!-- n0&#45;&gt;n1 -->
<g id="edge1" class="edge">
<title>n0&#45;&gt;n1</title>
<path fill="none" stroke="blue" d="M83.54,-120.62C83.54,-130.67 83.54,-140.28 83.54,-140.28 83.54,-140.28 394.35,-140.28 394.35,-140.28"/>
<polygon fill="blue" stroke="blue" points="394.35,-143.08 402.35,-140.28 394.35,-137.48 394.35,-143.08"/>
<text text-anchor="middle" x="196.72" y="-131.5" font-family="Arial" font-size="10.00" fill="gray">Contain</text>
</g>
<!-- dir -->
<g id="node4" class="node">
<title>dir</title>
<polygon fill="#5dade2" stroke="black" points="132.27,-265.27 129.27,-269.27 108.27,-269.27 105.27,-265.27 35.07,-265.27 35.07,-220.72 132.27,-220.72 132.27,-265.27"/>
<text text-anchor="middle" x="83.67" y="-237.57" font-family="Arial" font-size="14.00">Directory</text>
</g>
<!-- file -->
<g id="node5" class="node">
<title>file</title>
<polygon fill="#fadbd8" stroke="black" points="485.79,-252.28 426.84,-252.28 426.84,-207.72 491.79,-207.72 491.79,-246.28 485.79,-252.28"/>
<polyline fill="none" stroke="black" points="485.79,-252.28 485.79,-246.28"/>
<polyline fill="none" stroke="black" points="491.79,-246.28 485.79,-246.28"/>
<text text-anchor="middle" x="459.31" y="-224.57" font-family="Arial" font-size="14.00">File</text>
</g>
<!-- dir&#45;&gt;file -->
<g id="edge3" class="edge">
<title>dir&#45;&gt;file</title>
<path fill="none" stroke="blue" d="M132.39,-236.5C132.39,-236.5 414.91,-236.5 414.91,-236.5"/>
<polygon fill="blue" stroke="blue" points="414.91,-240 424.91,-236.5 414.91,-233 414.91,-240"/>
<text text-anchor="middle" x="196.72" y="-246.5" font-family="Arial" font-size="10.00" fill="gray">Contain</text>
</g>
<!-- pkg -->
<g id="node6" class="node">
<title>pkg</title>
<ellipse fill="#eb984e" stroke="black" cx="83.67" cy="-333" rx="67.67" ry="31.5"/>
<text text-anchor="middle" x="83.67" y="-327.57" font-family="Arial" font-size="14.00">Package</text>
</g>
<!-- ext -->
<g id="node7" class="node">
<title>ext</title>
<polygon fill="#ec7063" stroke="black" points="513.45,-377.55 405.18,-377.55 366.61,-288.45 552.01,-288.45 513.45,-377.55"/>
<text text-anchor="middle" x="459.31" y="-327.57" font-family="Arial" font-size="14.00">External</text>
</g>
<!-- pkg&#45;&gt;ext -->
<g id="edge4" class="edge">
<title>pkg&#45;&gt;ext</title>
<path fill="none" stroke="red" stroke-dasharray="5,2" d="M151.7,-333C151.7,-333 373.85,-333 373.85,-333"/>
<polygon fill="red" stroke="red" points="373.85,-336.5 383.85,-333 373.85,-329.5 373.85,-336.5"/>
<text text-anchor="middle" x="196.72" y="-335.5" font-family="Arial" font-size="10.00" fill="gray">Dependency</text>
</g>
</g>
</svg>
